<svg width="730" height="880" viewBox="0 0 730 880" fill="none" xmlns="http://www.w3.org/2000/svg">
<circle cx="386" cy="436" r="340" fill="black"/>
<path d="M724.564 877.377L327.814 648.314L724.564 419.25L724.564 877.377Z" fill="black"/>
<circle cx="340" cy="340" r="340" fill="#FFC107"/>
<path d="M678.564 781.377L281.814 552.314L678.564 323.25L678.564 781.377Z" fill="#FFC107"/>
<path d="M207.912 470.147C197.858 470.147 187.302 469.393 176.244 467.885C165.436 466.628 155.132 464.618 145.33 461.853C135.528 459.088 126.731 455.821 118.94 452.051C112.154 448.784 107.378 444.511 104.614 439.233C101.849 433.704 100.844 427.923 101.598 421.891C102.352 415.859 104.488 410.581 108.007 406.057C111.525 401.282 116.175 398.14 121.956 396.632C127.736 394.873 134.271 395.627 141.56 398.894C151.11 403.418 161.918 406.937 173.982 409.45C186.046 411.963 197.356 413.22 207.912 413.22C224.5 413.22 236.061 411.084 242.596 406.811C249.382 402.287 252.775 396.758 252.775 390.223C252.775 384.442 250.387 379.793 245.612 376.274C241.088 372.755 232.919 369.739 221.107 367.226L176.998 357.801C152.87 352.774 134.899 343.978 123.087 331.411C111.274 318.844 105.368 302.633 105.368 282.778C105.368 269.709 108.007 257.896 113.285 247.34C118.814 236.533 126.48 227.359 136.282 219.819C146.335 212.279 158.148 206.498 171.72 202.477C185.543 198.204 200.874 196.068 217.714 196.068C230.783 196.068 243.978 197.576 257.299 200.592C270.871 203.357 282.558 207.629 292.36 213.41C298.14 216.426 302.287 220.573 304.801 225.851C307.314 231.129 308.319 236.658 307.817 242.439C307.314 247.968 305.303 252.869 301.785 257.142C298.517 261.415 293.993 264.305 288.213 265.813C282.683 267.07 276.023 266.064 268.232 262.797C260.943 259.53 252.649 257.142 243.35 255.634C234.302 253.875 225.505 252.995 216.96 252.995C207.66 252.995 199.743 254.126 193.209 256.388C186.674 258.399 181.647 261.415 178.129 265.436C174.861 269.457 173.228 274.107 173.228 279.385C173.228 284.663 175.364 289.187 179.637 292.957C184.161 296.476 192.329 299.492 204.142 302.005L247.874 311.43C272.253 316.708 290.475 325.379 302.539 337.443C314.603 349.507 320.635 365.215 320.635 384.568C320.635 397.637 317.996 409.45 312.718 420.006C307.44 430.562 299.9 439.61 290.098 447.15C280.296 454.439 268.483 460.094 254.66 464.115C240.836 468.136 225.254 470.147 207.912 470.147ZM472.327 470.147C462.274 470.147 451.718 469.393 440.659 467.885C429.852 466.628 419.547 464.618 409.745 461.853C399.943 459.088 391.146 455.821 383.355 452.051C376.569 448.784 371.794 444.511 369.029 439.233C366.264 433.704 365.259 427.923 366.013 421.891C366.767 415.859 368.903 410.581 372.422 406.057C375.941 401.282 380.59 398.14 386.371 396.632C392.152 394.873 398.686 395.627 405.975 398.894C415.526 403.418 426.333 406.937 438.397 409.45C450.461 411.963 461.771 413.22 472.327 413.22C488.915 413.22 500.476 411.084 507.011 406.811C513.797 402.287 517.19 396.758 517.19 390.223C517.19 384.442 514.802 379.793 510.027 376.274C505.503 372.755 497.335 369.739 485.522 367.226L441.413 357.801C417.285 352.774 399.315 343.978 387.502 331.411C375.689 318.844 369.783 302.633 369.783 282.778C369.783 269.709 372.422 257.896 377.7 247.34C383.229 236.533 390.895 227.359 400.697 219.819C410.75 212.279 422.563 206.498 436.135 202.477C449.958 198.204 465.29 196.068 482.129 196.068C495.198 196.068 508.393 197.576 521.714 200.592C535.286 203.357 546.973 207.629 556.775 213.41C562.556 216.426 566.703 220.573 569.216 225.851C571.729 231.129 572.735 236.658 572.232 242.439C571.729 247.968 569.719 252.869 566.2 257.142C562.933 261.415 558.409 264.305 552.628 265.813C547.099 267.07 540.438 266.064 532.647 262.797C525.358 259.53 517.064 257.142 507.765 255.634C498.717 253.875 489.92 252.995 481.375 252.995C472.076 252.995 464.159 254.126 457.624 256.388C451.089 258.399 446.063 261.415 442.544 265.436C439.277 269.457 437.643 274.107 437.643 279.385C437.643 284.663 439.779 289.187 444.052 292.957C448.576 296.476 456.744 299.492 468.557 302.005L512.289 311.43C536.668 316.708 554.89 325.379 566.954 337.443C579.018 349.507 585.05 365.215 585.05 384.568C585.05 397.637 582.411 409.45 577.133 420.006C571.855 430.562 564.315 439.61 554.513 447.15C544.711 454.439 532.898 460.094 519.075 464.115C505.252 468.136 489.669 470.147 472.327 470.147Z" fill="white"/>
</svg>